HIERARCHY
ROOT Hips
{
  OFFSET -436.379 91.226 747.51
  CHANNELS 6 Xposition Yposition Zposition Zrotation Xrotation Yrotation
  JOINT Spine
  {
    OFFSET -1.89517e-05 8 0
    CHANNELS 6 Xposition Yposition Zposition Zrotation Xrotation Yrotation
    JOINT Spine1
    {
      OFFSET 8.3956e-05 7.99992 0.0350311
      CHANNELS 6 Xposition Yposition Zposition Zrotation Xrotation Yrotation
      JOINT Spine2
      {
        OFFSET -4.3464e-05 8 -3.32132e-05
        CHANNELS 6 Xposition Yposition Zposition Zrotation Xrotation Yrotation
        JOINT Spine3
        {
          OFFSET 0 8 0
          CHANNELS 6 Xposition Yposition Zposition Zrotation Xrotation Yrotation
          JOINT Neck
          {
            OFFSET -0.000138221 17 0
            CHANNELS 6 Xposition Yposition Zposition Zrotation Xrotation Yrotation
            JOINT Head
            {
              OFFSET 1.3846e-05 10.8 -5.53078e-05
              CHANNELS 6 Xposition Yposition Zposition Zrotation Xrotation Yrotation
              End Site
              {
                OFFSET 0 20.25 0
              }
            }
          }
          JOINT LeftShoulder
          {
            OFFSET 4.99989 17.0001 1.6355e-05
            CHANNELS 6 Xposition Yposition Zposition Zrotation Xrotation Yrotation
            JOINT LeftShoulder2
            {
              OFFSET 6.45 0 0
              CHANNELS 6 Xposition Yposition Zposition Zrotation Xrotation Yrotation
              JOINT LeftArm
              {
                OFFSET 6.44999 0 -3.15225e-05
                CHANNELS 6 Xposition Yposition Zposition Zrotation Xrotation Yrotation
                JOINT LeftForeArm
                {
                  OFFSET -5.40494e-05 -32.4 -2.05734
                  CHANNELS 6 Xposition Yposition Zposition Zrotation Xrotation Yrotation
                  JOINT LeftHand
                  {
                    OFFSET 8.35768e-05 -25.6526 2.00006
                    CHANNELS 6 Xposition Yposition Zposition Zrotation Xrotation Yrotation
                    JOINT LeftHandThumb1
                    {
                      OFFSET -0.500018 -1.49996 2.64988
                      CHANNELS 6 Xposition Yposition Zposition Zrotation Xrotation Yrotation
                      JOINT LeftHandThumb2
                      {
                        OFFSET -2.88819e-05 -3.79996 3.69997
                        CHANNELS 6 Xposition Yposition Zposition Zrotation Xrotation Yrotation
                        JOINT LeftHandThumb3
                        {
                          OFFSET -9.79725e-05 -2.99994 2.70006
                          CHANNELS 6 Xposition Yposition Zposition Zrotation Xrotation Yrotation
                          End Site
                          {
                            OFFSET 4.99566e-05 -2.29999 1.79998
                          }
                        }
                      }
                    }
                    JOINT LeftHandIndex
                    {
                      OFFSET -6.7871e-05 -1.90007 1.59999
                      CHANNELS 6 Xposition Yposition Zposition Zrotation Xrotation Yrotation
                      JOINT LeftHandIndex1
                      {
                        OFFSET 3.94634e-05 -8.29999 1.9
                        CHANNELS 6 Xposition Yposition Zposition Zrotation Xrotation Yrotation
                        JOINT LeftHandIndex2
                        {
                          OFFSET 0.0218945 -4.50002 -5.30446e-05
                          CHANNELS 6 Xposition Yposition Zposition Zrotation Xrotation Yrotation
                          JOINT LeftHandIndex3
                          {
                            OFFSET 1.76058e-05 -3.39998 0
                            CHANNELS 6 Xposition Yposition Zposition Zrotation Xrotation Yrotation
                            End Site
                            {
                              OFFSET -3.11262e-05 -2.60007 5.88666e-05
                            }
                          }
                        }
                      }
                    }
                    JOINT LeftHandMiddle
                    {
                      OFFSET -0.25001 -2.19997 0.400051
                      CHANNELS 6 Xposition Yposition Zposition Zrotation Xrotation Yrotation
                      JOINT LeftHandMiddle1
                      {
                        OFFSET -3.20517e-05 -8.30006 1.01595
                        CHANNELS 6 Xposition Yposition Zposition Zrotation Xrotation Yrotation
                        JOINT LeftHandMiddle2
                        {
                          OFFSET 1.63377e-05 -4.65002 -0.0106623
                          CHANNELS 6 Xposition Yposition Zposition Zrotation Xrotation Yrotation
                          JOINT LeftHandMiddle3
                          {
                            OFFSET -1.84867e-05 -3.30004 1.35739e-05
                            CHANNELS 6 Xposition Yposition Zposition Zrotation Xrotation Yrotation
                            End Site
                            {
                              OFFSET -1.89673e-05 -2.69995 2.14515e-05
                            }
                          }
                        }
                      }
                    }
                    JOINT LeftHandRing
                    {
                      OFFSET -0.50005 -2.12709 -0.800014
                      CHANNELS 6 Xposition Yposition Zposition Zrotation Xrotation Yrotation
                      JOINT LeftHandRing1
                      {
                        OFFSET 3.88912e-05 -7.73943 -0.200009
                        CHANNELS 6 Xposition Yposition Zposition Zrotation Xrotation Yrotation
                        JOINT LeftHandRing2
                        {
                          OFFSET -0.0289812 -3.78535 4.76038e-05
                          CHANNELS 6 Xposition Yposition Zposition Zrotation Xrotation Yrotation
                          JOINT LeftHandRing3
                          {
                            OFFSET 0.00373399 -3.39993 4.59505e-05
                            CHANNELS 6 Xposition Yposition Zposition Zrotation Xrotation Yrotation
                            End Site
                            {
                              OFFSET 2.6158e-05 -2.60004 -3.71277e-05
                            }
                          }
                        }
                      }
                    }
                    JOINT LeftHandPinky
                    {
                      OFFSET -0.750011 -1.74999 -1.85002
                      CHANNELS 6 Xposition Yposition Zposition Zrotation Xrotation Yrotation
                      JOINT LeftHandPinky1
                      {
                        OFFSET 4.45278e-05 -7.15005 -1.00004
                        CHANNELS 6 Xposition Yposition Zposition Zrotation Xrotation Yrotation
                        JOINT LeftHandPinky2
                        {
                          OFFSET 0.0342987 -2.99994 -4.96858e-05
                          CHANNELS 6 Xposition Yposition Zposition Zrotation Xrotation Yrotation
                          JOINT LeftHandPinky3
                          {
                            OFFSET -6.23061e-05 -2.35005 7.21974e-05
                            CHANNELS 6 Xposition Yposition Zposition Zrotation Xrotation Yrotation
                            End Site
                            {
                              OFFSET 7.49425e-05 -2.10004 0
                            }
                          }
                        }
                      }
                    }
                  }
                }
              }
            }
          }
          JOINT RightShoulder
          {
            OFFSET -5.0001 17 -2.25878e-05
            CHANNELS 6 Xposition Yposition Zposition Zrotation Xrotation Yrotation
            JOINT RightShoulder2
            {
              OFFSET -6.45 0 0
              CHANNELS 6 Xposition Yposition Zposition Zrotation Xrotation Yrotation
              JOINT RightArm
              {
                OFFSET -6.45001 8.77488e-05 0.000156649
                CHANNELS 6 Xposition Yposition Zposition Zrotation Xrotation Yrotation
                JOINT RightForeArm
                {
                  OFFSET 1.89992e-05 -32.4 -2.00004
                  CHANNELS 6 Xposition Yposition Zposition Zrotation Xrotation Yrotation
                  JOINT RightHand
                  {
                    OFFSET 0.0437695 -25.6499 2.00005
                    CHANNELS 6 Xposition Yposition Zposition Zrotation Xrotation Yrotation
                    JOINT RightHandThumb1
                    {
                      OFFSET 0.499989 -1.49999 2.65004
                      CHANNELS 6 Xposition Yposition Zposition Zrotation Xrotation Yrotation
                      JOINT RightHandThumb2
                      {
                        OFFSET 0.0320864 -3.79998 3.70005
                        CHANNELS 6 Xposition Yposition Zposition Zrotation Xrotation Yrotation
                        JOINT RightHandThumb3
                        {
                          OFFSET 0.0223302 -2.99999 2.7
                          CHANNELS 6 Xposition Yposition Zposition Zrotation Xrotation Yrotation
                          End Site
                          {
                            OFFSET -9.72879e-05 -2.30001 1.80001
                          }
                        }
                      }
                    }
                    JOINT RightHandIndex
                    {
                      OFFSET -0.00132299 -1.93269 1.60172
                      CHANNELS 6 Xposition Yposition Zposition Zrotation Xrotation Yrotation
                      JOINT RightHandIndex1
                      {
                        OFFSET 4.6827e-05 -8.30004 1.90003
                        CHANNELS 6 Xposition Yposition Zposition Zrotation Xrotation Yrotation
                        JOINT RightHandIndex2
                        {
                          OFFSET -2.54309e-05 -4.49997 0.0274858
                          CHANNELS 6 Xposition Yposition Zposition Zrotation Xrotation Yrotation
                          JOINT RightHandIndex3
                          {
                            OFFSET -2.87746e-05 -3.40005 -3.26215e-05
                            CHANNELS 6 Xposition Yposition Zposition Zrotation Xrotation Yrotation
                            End Site
                            {
                              OFFSET -2.52655e-05 -2.59997 7.03742e-05
                            }
                          }
                        }
                      }
                    }
                    JOINT RightHandMiddle
                    {
                      OFFSET 0.250069 -2.20002 0.400016
                      CHANNELS 6 Xposition Yposition Zposition Zrotation Xrotation Yrotation
                      JOINT RightHandMiddle1
                      {
                        OFFSET -3.13815e-05 -8.29999 1.00326
                        CHANNELS 6 Xposition Yposition Zposition Zrotation Xrotation Yrotation
                        JOINT RightHandMiddle2
                        {
                          OFFSET 5.99947e-05 -4.64998 -4.70226e-05
                          CHANNELS 6 Xposition Yposition Zposition Zrotation Xrotation Yrotation
                          JOINT RightHandMiddle3
                          {
                            OFFSET -3.97937e-05 -3.24812 0
                            CHANNELS 6 Xposition Yposition Zposition Zrotation Xrotation Yrotation
                            End Site
                            {
                              OFFSET -4.27204e-05 -2.69994 -2.29606e-05
                            }
                          }
                        }
                      }
                    }
                    JOINT RightHandRing
                    {
                      OFFSET 0.499917 -2.14994 -0.800018
                      CHANNELS 6 Xposition Yposition Zposition Zrotation Xrotation Yrotation
                      JOINT RightHandRing1
                      {
                        OFFSET 0 -7.74994 -0.199918
                        CHANNELS 6 Xposition Yposition Zposition Zrotation Xrotation Yrotation
                        JOINT RightHandRing2
                        {
                          OFFSET 1.8908e-05 -3.82379 -1.4623e-05
                          CHANNELS 6 Xposition Yposition Zposition Zrotation Xrotation Yrotation
                          JOINT RightHandRing3
                          {
                            OFFSET -3.77442e-05 -3.40001 -3.71719e-05
                            CHANNELS 6 Xposition Yposition Zposition Zrotation Xrotation Yrotation
                            End Site
                            {
                              OFFSET 6.7033e-05 -2.60006 7.32795e-05
                            }
                          }
                        }
                      }
                    }
                    JOINT RightHandPinky
                    {
                      OFFSET 0.749984 -1.74995 -1.83948
                      CHANNELS 6 Xposition Yposition Zposition Zrotation Xrotation Yrotation
                      JOINT RightHandPinky1
                      {
                        OFFSET 4.90519e-05 -7.15005 -0.999986
                        CHANNELS 6 Xposition Yposition Zposition Zrotation Xrotation Yrotation
                        JOINT RightHandPinky2
                        {
                          OFFSET 5.51403e-05 -3.00003 5.97954e-05
                          CHANNELS 6 Xposition Yposition Zposition Zrotation Xrotation Yrotation
                          JOINT RightHandPinky3
                          {
                            OFFSET -2.74951e-05 -2.34999 -4.4459e-05
                            CHANNELS 6 Xposition Yposition Zposition Zrotation Xrotation Yrotation
                            End Site
                            {
                              OFFSET 3.25469e-05 -2.10381 0.013298
                            }
                          }
                        }
                      }
                    }
                  }
                }
              }
            }
          }
        }
      }
    }
  }
  JOINT LeftUpLeg
  {
    OFFSET 7.99998 0 0
    CHANNELS 6 Xposition Yposition Zposition Zrotation Xrotation Yrotation
    JOINT LeftLeg
    {
      OFFSET -4.768e-05 -45 -1.00003
      CHANNELS 6 Xposition Yposition Zposition Zrotation Xrotation Yrotation
      JOINT LeftFoot
      {
        OFFSET -3.60514e-05 -41 -1.99997
        CHANNELS 6 Xposition Yposition Zposition Zrotation Xrotation Yrotation
        JOINT LeftToeBase
        {
          OFFSET -4.12075e-05 -7.5 12.4999
          CHANNELS 6 Xposition Yposition Zposition Zrotation Xrotation Yrotation
          JOINT LeftFootToe
          {
            OFFSET 0 0 4
            CHANNELS 6 Xposition Yposition Zposition Zrotation Xrotation Yrotation
            End Site
            {
              OFFSET 0 0 0
            }
          }
        }
      }
    }
  }
  JOINT RightUpLeg
  {
    OFFSET -7.99998 0 0
    CHANNELS 6 Xposition Yposition Zposition Zrotation Xrotation Yrotation
    JOINT RightLeg
    {
      OFFSET -3.21394e-05 -45 -1.00004
      CHANNELS 6 Xposition Yposition Zposition Zrotation Xrotation Yrotation
      JOINT RightFoot
      {
        OFFSET -5.242e-05 -41 -1.99992
        CHANNELS 6 Xposition Yposition Zposition Zrotation Xrotation Yrotation
        JOINT RightToeBase
        {
          OFFSET 2.95602e-05 -7.5 12.5
          CHANNELS 6 Xposition Yposition Zposition Zrotation Xrotation Yrotation
          JOINT RightFootToe
          {
            OFFSET 0 0 4
            CHANNELS 6 Xposition Yposition Zposition Zrotation Xrotation Yrotation
            End Site
            {
              OFFSET 0 0 0
            }
          }
        }
      }
    }
  }
}
MOTION
Frames:	3
Frame Time:	0.0111111
-436.176 92.1672 750.042 0.340622 5.71039 94.6409 -1.13687e-13 8 -1.13687e-13 -9.07624 -2.8429 -7.59938 1.13687e-13 8 5.68434e-14 0.689102 2.37017 -1.02745 0 8 5.68434e-14 0.327772 1.18659 -0.510126 0 8 0 0.338918 1.18649 -0.509756 1.13687e-13 17 -5.68434e-14 -5.8547 10.3901 8.68269 0 10.8 -5.68434e-14 -2.19565 18.7334 20.6324 5 17 5.68434e-14 -7.31732 -1.99975 3.7987 6.45 2.84217e-14 5.68434e-14 0.568289 -0.588749 -0.842163 6.45 4.26326e-14 -5.68434e-14 10.1072 7.94473 8.0651 0 -32.4 -2 -83.2384 -38.3958 -34.8768 0 -25.65 2 16.7567 9.8765 18.4698 -0.5 -1.5 2.65 -10.8606 14.2591 6.04263 -5.68434e-14 -3.8 3.7 -0.0555347 12.4748 -0.0573742 -5.68434e-14 -3 2.7 -0.0459239 37.361 -0.088314 0 -1.9 1.6 5.62649e-07 7.75417e-06 2.22489e-05 5.68434e-14 -8.3 1.9 -26.4413 31.8851 8.80121 0 -4.5 5.68434e-14 -55.1896 0.0269087 0.0021043 0 -3.4 -5.68434e-14 -38.1524 0.00452848 0.00706162 -0.25 -2.2 0.4 5.62649e-07 7.75417e-06 2.22489e-05 -5.68434e-14 -8.3 1 -37.75 26.508 11.0465 0 -4.65 0 -1.67035 0.00520076 0.0114784 0 -3.3 1.13687e-13 -0.0856546 0.00517296 0.0112859 -0.5 -2.15 -0.8 5.62649e-07 7.75417e-06 2.22489e-05 0 -7.75 -0.2 -38.602 14.8754 7.09266 2.84217e-14 -3.8 1.13687e-13 -36.5237 -0.00150209 0.00282899 -5.68434e-14 -3.4 1.13687e-13 -25.072 -0.00949475 0.00632754 -0.75 -1.75 -1.85 5.62649e-07 7.75417e-06 2.22489e-05 0 -7.15 -1 -49.0115 9.28008 7.24089 4.26326e-14 -3 0 -12.7679 0.0225926 0.027378 0 -2.35 0 -10.8582 0.0106398 0.0220091 -5 17 0 -3.27638 3.9685 0.626259 -6.45 1.42109e-14 0 -1.62523 -1.17227 0.374702 -6.45 1.42109e-14 5.68434e-14 -41.9457 -50.3413 -13.9632 0 -32.4 -2 129.288 -37.3991 121.418 0 -25.65 2 -7.57307 5.42836 30.2031 0.5 -1.5 2.65 103.262 56.6301 -168.802 0 -3.8 3.7 0.0486154 12.1129 -0.0162399 1.13687e-13 -3 2.7 -0.133105 34.9407 0.0113288 5.68434e-14 -1.9 1.6 -5.69863e-05 2.42883e-05 -2.68792e-05 -5.68434e-14 -8.3 1.9 4.45013 -15.7416 0.48205 0 -4.5 0 49.3136 0.0539666 -0.0273198 0 -3.4 0 33.1242 0.0210707 -0.0335407 0.25 -2.2 0.4 -5.69863e-05 2.42883e-05 -2.68792e-05 -5.68434e-14 -8.3 1 13.7719 -10.3562 0.626327 8.52651e-14 -4.65 2.84217e-14 32.7145 0.00405773 0.00202345 2.84217e-14 -3.3 -2.84217e-14 22.8787 -0.00114093 -0.00129646 0.5 -2.15 -0.8 -5.69863e-05 2.42883e-05 -2.68792e-05 0 -7.75 -0.2 32.6757 -7.66898 0.568223 0 -3.8 5.68434e-14 0.0230086 0.0073088 -0.00106368 0 -3.4 -8.52651e-14 -3.09671e-05 0.00685198 -0.0774819 0.75 -1.75 -1.85 -5.69863e-05 2.42883e-05 -2.68792e-05 0 -7.15 -1 44.6943 -7.25804 0.340831 -2.84217e-14 -3 0 0.00099504 0.00975031 -0.0135436 -2.84217e-14 -2.35 -2.84217e-14 -1.89468e-06 0.000321792 -0.0135385 8 0 -1.13687e-13 -2.65163 0.338619 29.5761 0 -45 -1 0.89758 18.0021 -6.96033 -5.68434e-14 -41 -2 -1.39398 -16.376 4.32996 -1.13687e-13 -7.5 12.5 4.27327e-06 -1.21123e-06 -9.27685e-06 -5.68434e-14 2.22045e-16 4 -3.94617 3.64005 -16.392 -8 0 -5.68434e-14 -17.8721 -12.4109 -23.4035 1.13687e-13 -45 -1 0.456085 27.6133 7.68883 0 -41 -2 4.05547 -12.066 10.5895 0 -7.5 12.5 -6.99637e-07 0.0523711 -3.54061e-05 -1.13687e-13 0 4 -4.92185 -1.83197 37.5275 
-436.185 92.1716 750.051 0.340659 5.71268 94.5499 0 8 0 -9.08975 -2.79918 -7.61408 0 8 0 0.683354 2.35962 -1.04017 0 8 5.68434e-14 0.327853 1.18089 -0.516519 1.13687e-13 8 0 0.336466 1.18089 -0.514878 1.13687e-13 17 0 -5.85646 10.4535 8.69602 0 10.8 -5.68434e-14 -2.19766 18.7444 20.6566 5 17 5.68434e-14 -7.34027 -1.92846 3.70088 6.45 -4.26326e-14 0 0.577548 -0.579602 -0.830706 6.45 -1.42109e-14 0 10.1652 7.87601 8.31655 1.13687e-13 -32.4 -2 -82.6336 -38.4457 -34.7281 -1.13687e-13 -25.65 2 16.5197 9.52744 17.7605 -0.5 -1.5 2.65 -10.7412 13.6033 6.23013 0 -3.8 3.7 -0.0482373 12.2531 -0.0664734 0 -3 2.7 0.0095924 34.0864 -0.106876 -5.68434e-14 -1.9 1.6 5.62649e-07 7.75417e-06 2.22489e-05 0 -8.3 1.9 -24.9852 31.47 8.20017 0 -4.5 -5.68434e-14 -56.0308 0.0269087 0.00106448 -5.68434e-14 -3.4 0 -38.7977 0.00452848 0.0073414 -0.25 -2.2 0.4 5.62649e-07 7.75417e-06 2.22489e-05 0 -8.3 1 -36.5886 26.4349 10.6507 0 -4.65 0 -1.75479 0.00657753 0.00965864 -2.84217e-14 -3.3 0 -0.180201 0.00645944 0.00942728 -0.5 -2.15 -0.8 5.62649e-07 7.75417e-06 2.22489e-05 -5.68434e-14 -7.75 -0.2 -37.9605 15.0937 7.03862 2.84217e-14 -3.8 0 -36.5745 -0.00048381 0.00821632 -2.84217e-14 -3.4 0 -25.102 -0.00949475 0.00728791 -0.75 -1.75 -1.85 5.62649e-07 7.75417e-06 2.22489e-05 -5.68434e-14 -7.15 -1 -48.3316 9.5111 7.19845 4.26326e-14 -3 0 -13.7427 0.0153917 0.041283 0 -2.35 -1.13687e-13 -11.5608 0.00379506 0.0305166 -5 17 5.68434e-14 -3.23718 4.0268 0.619124 -6.45 -1.42109e-14 0 -1.63628 -1.17235 0.345985 -6.45 0 0 -41.7715 -50.2033 -13.8434 0 -32.4 -2 129.311 -37.4234 121.563 0 -25.65 2 -8.04966 4.64383 30.786 0.5 -1.5 2.65 104.55 56.3176 -169.11 0 -3.8 3.7 0.0492126 12.5577 -0.01842 0 -3 2.7 -0.133105 34.9407 0.0113288 5.68434e-14 -1.9 1.6 -5.69863e-05 2.42883e-05 -2.68792e-05 0 -8.3 1.9 4.8157 -15.7901 0.531158 5.68434e-14 -4.5 5.68434e-14 50.7236 0.0347156 -0.0201005 5.68434e-14 -3.4 0 34.053 0.0126218 -0.0234453 0.25 -2.2 0.4 -5.69863e-05 2.42883e-05 -2.68792e-05 -5.68434e-14 -8.3 1 14.279 -9.83919 0.59063 2.84217e-14 -4.65 5.68434e-14 32.9963 0.00405773 0.00202345 -5.68434e-14 -3.3 2.84217e-14 23.0473 -0.00114093 -0.00129646 0.5 -2.15 -0.8 -5.69863e-05 2.42883e-05 -2.68792e-05 0 -7.75 -0.2 33.522 -7.25009 0.447706 -2.84217e-14 -3.8 0 0.0230086 0.0073088 -0.00106368 0 -3.4 -2.84217e-14 -3.09671e-05 0.00685198 -0.0774819 0.75 -1.75 -1.85 -5.69863e-05 2.42883e-05 -2.68792e-05 0 -7.15 -1 46.274 -6.96482 0.165939 0 -3 8.52651e-14 0.00099504 0.00975031 -0.0135436 0 -2.35 -2.84217e-14 -1.89468e-06 0.000321792 -0.0135385 8 0 0 -2.65882 0.355647 29.637 0 -45 -1 0.897774 17.9565 -6.94825 -1.13687e-13 -41 -2 -1.40742 -16.3528 4.31059 0 -7.5 12.5 4.27327e-06 -1.21123e-06 -9.27685e-06 -1.13687e-13 2.22045e-16 4 -3.90676 3.60661 -16.4132 -8 0 5.68434e-14 -17.8881 -12.4552 -23.462 0 -45 -1 0.457111 27.658 7.68919 0 -41 -2 4.03217 -12.0888 10.7731 0 -7.5 12.5 -6.99637e-07 0.0523711 -3.54061e-05 0 0 4 -4.90409 -1.83648 37.5226 
-436.196 92.1753 750.061 0.340709 5.71391 94.4675 0 8 -5.68434e-14 -9.10368 -2.75671 -7.62838 0 8 -1.13687e-13 0.678421 2.35002 -1.04914 1.13687e-13 8 5.68434e-14 0.327905 1.17641 -0.521039 0 8 0 0.334135 1.17583 -0.520639 1.13687e-13 17 0 -5.85791 10.5192 8.69965 0 10.8 0 -2.20177 18.7622 20.6586 5 17 0 -7.36925 -1.85892 3.57825 6.45 1.42109e-14 5.68434e-14 0.586488 -0.57056 -0.822164 6.45 2.84217e-14 0 10.1991 7.77257 8.5553 0 -32.4 -2 -81.9177 -38.5482 -34.3659 0 -25.65 2 16.1549 9.24804 17.087 -0.5 -1.5 2.65 -10.3954 12.7998 6.52442 -5.68434e-14 -3.8 3.7 -0.0308573 11.877 -0.0784588 0 -3 2.7 0.0449213 31.205 -0.112784 -5.68434e-14 -1.9 1.6 5.62649e-07 7.75417e-06 2.22489e-05 -5.68434e-14 -8.3 1.9 -23.5661 31.0489 7.62353 5.68434e-14 -4.5 5.68434e-14 -56.6384 0.0269087 0.00189289 -5.68434e-14 -3.4 0 -39.2665 0.00452848 0.00871965 -0.25 -2.2 0.4 5.62649e-07 7.75417e-06 2.22489e-05 0 -8.3 1 -35.2881 26.3472 10.214 0 -4.65 0 -1.9506 0.00566365 0.00748815 -5.68434e-14 -3.3 -1.13687e-13 -0.375736 0.0056061 0.00723877 -0.5 -2.15 -0.8 5.62649e-07 7.75417e-06 2.22489e-05 -5.68434e-14 -7.75 -0.2 -37.2288 15.3143 6.96579 0 -3.8 2.27374e-13 -36.7505 -0.00184649 0.0112617 2.84217e-14 -3.4 0 -25.2075 -0.00949475 0.00679109 -0.75 -1.75 -1.85 5.62649e-07 7.75417e-06 2.22489e-05 0 -7.15 -1 -47.5751 9.77124 7.15264 1.42109e-14 -3 0 -14.6279 0.00868324 0.0498852 0 -2.35 0 -12.1981 -0.00173253 0.035481 -5 17 0 -3.21427 4.08463 0.58168 -6.45 1.42109e-14 0 -1.64282 -1.17244 0.329702 -6.45 -2.84217e-14 0 -41.5479 -50.0819 -13.71 0 -32.4 -2 129.313 -37.4536 121.676 0 -25.65 2 -8.53348 3.88483 31.2978 0.5 -1.5 2.65 105.837 56.0693 -169.403 0 -3.8 3.7 0.0498277 12.9799 -0.020569 -1.13687e-13 -3 2.7 -0.133105 34.9407 0.0113288 0 -1.9 1.6 -5.69863e-05 2.42883e-05 -2.68792e-05 0 -8.3 1.9 5.18208 -15.7986 0.578619 5.68434e-14 -4.5 0 51.9821 0.0185862 -0.013942 -1.13687e-13 -3.4 5.68434e-14 34.8883 0.00539764 -0.0148201 0.25 -2.2 0.4 -5.69863e-05 2.42883e-05 -2.68792e-05 -5.68434e-14 -8.3 1 14.7604 -9.27542 0.548865 2.84217e-14 -4.65 -1.13687e-13 33.1814 0.00405773 0.00202345 -5.68434e-14 -3.3 -8.52651e-14 23.158 -0.00114093 -0.00129646 0.5 -2.15 -0.8 -5.69863e-05 2.42883e-05 -2.68792e-05 0 -7.75 -0.2 34.2832 -6.79957 0.318174 0 -3.8 0 0.0230086 0.0073088 -0.00106368 2.84217e-14 -3.4 -2.84217e-14 -3.09671e-05 0.00685198 -0.0774819 0.75 -1.75 -1.85 -5.69863e-05 2.42883e-05 -2.68792e-05 0 -7.15 -1 47.7611 -6.64847 -0.0240736 0 -3 0 0.00099504 0.00975031 -0.0135436 -2.84217e-14 -2.35 0 -1.89468e-06 0.000321792 -0.0135385 8 0 -5.68434e-14 -2.66172 0.367495 29.6993 -1.13687e-13 -45 -1 0.897973 17.9209 -6.93779 0 -41 -2 -1.42106 -16.3325 4.28324 5.68434e-14 -7.5 12.5 4.27327e-06 -1.21123e-06 -9.27685e-06 -1.13687e-13 -2.22045e-16 4 -3.87472 3.57697 -16.411 -8 0 -5.68434e-14 -17.9011 -12.5028 -23.5054 0 -45 -1 0.458717 27.7092 7.68802 1.13687e-13 -41 -2 4.00847 -12.1166 10.941 0 -7.5 12.5 -6.99637e-07 0.0523711 -3.54061e-05 0 8.88178e-16 4 -4.89021 -1.83789 37.5144 
